<svg xmlns="http://www.w3.org/2000/svg" version="1.1" viewBox="0 0 620 620">
  <rect fill="#fff" x="30" y="210" width="550" height="370" />
  <rect fill="#7fa768" x="30" y="30" width="550" height="180" />
  <path
    d="M541 10H74C39 10 10 39 10 74v467c0 35 29 64 64 64h467c35 0 64-29 64-64V74c0-35-29-64-64-64ZM417 213h0s0 0 0 0ZM40 228h159l-1 158H40V228ZM199 575H74c-19 0-34-15-34-34V416h159v159Zm0-377H40V74c0-19 15-34 34-34h125v158h0ZM387 575H229v-160l158 1v159Zm-1-189-158-1 1-158 158 1-1 158Zm1-188-158-1V40H388l-1 158ZM575 541c0 19-15 34-34 34H417V416h158v125Zm0-155H416l1-158 158 1v157Zm0-187-158-1 1-158h123c19 0 34 15 34 34v125Z" />
</svg>